<svg width="283" height="283" viewBox="0 0 283 283" fill="none" xmlns="http://www.w3.org/2000/svg">
<path opacity="0.2" d="M0 282.9L1.2366e-05 0.000366211C18.5755 0.000367023 36.9691 3.65909 54.1306 10.7676C71.2921 17.8761 86.8855 28.2953 100.02 41.4301C113.155 54.565 123.574 70.1583 130.683 87.3198C137.791 104.481 141.45 122.875 141.45 141.45C141.45 178.965 126.547 214.944 100.02 241.471C73.4933 267.998 37.5149 282.9 0 282.9Z" fill="#A5A4A4"/>
<path d="M141.45 282.9L141.45 0.000366211C160.025 0.000367023 178.419 3.65909 195.58 10.7676C212.742 17.8761 228.335 28.2953 241.47 41.4301C254.605 54.565 265.024 70.1583 272.132 87.3198C279.241 104.481 282.9 122.875 282.9 141.45C282.9 178.965 267.997 214.944 241.47 241.471C214.943 267.998 178.965 282.9 141.45 282.9Z" fill="white"/>
</svg>
