<svg width="160" height="95" viewBox="0 0 160 95" fill="none" xmlns="http://www.w3.org/2000/svg">
<path d="M125.94 47.0101C125.94 57.115 122.683 66.951 116.653 75.0592C110.622 83.1675 102.139 89.1163 92.4615 92.0234C82.7838 94.9305 72.4268 94.6412 62.9264 91.1983C53.4261 87.7555 45.2883 81.3424 39.7199 72.9101C36.7135 68.3899 34.5236 63.3773 33.2499 58.1001C31.6937 51.6477 31.522 44.9388 32.7458 38.4152C33.9696 31.8916 36.5612 25.7011 40.3501 20.2514C44.1391 14.8017 49.0393 10.2163 54.7283 6.79711C60.4173 3.3779 66.766 1.20241 73.3564 0.413896C79.9468 -0.374622 86.6295 0.241697 92.9645 2.22228C99.2996 4.20286 105.143 7.50278 110.111 11.9048C115.079 16.3068 119.058 21.7111 121.786 27.7619C124.514 33.8127 125.93 40.3727 125.94 47.0101Z" fill="#FF0049"/>
<path d="M111.15 47.0099C111.15 57.1148 107.893 66.9508 101.863 75.059C95.8324 83.1673 87.3493 89.116 77.6715 92.0232C67.9938 94.9303 57.6368 94.641 48.1364 91.1981C38.6361 87.7553 30.4983 81.3422 24.9299 72.9099C21.9407 68.3864 19.7678 63.3739 18.5099 58.0999C16.9471 51.6454 16.7698 44.933 17.9898 38.4051C19.2098 31.8771 21.7994 25.6818 25.5878 20.2274C29.3762 14.7731 34.2776 10.1835 39.9688 6.76107C45.66 3.33869 52.0119 1.16124 58.6058 0.372219C65.1997 -0.416805 71.886 0.200518 78.224 2.1835C84.562 4.16648 90.4079 7.4701 95.3763 11.8766C100.345 16.2832 104.323 21.6926 107.049 27.7484C109.774 33.8042 111.186 40.3689 111.19 47.0099H111.15Z" fill="#253844"/>
<path d="M16.8198 47H125.94" stroke="white" stroke-width="4" stroke-linecap="round" stroke-linejoin="round"/>
<path d="M2.33984 47H16.8198" stroke="#FF0049" stroke-width="4" stroke-linecap="round" stroke-linejoin="round"/>
</svg>
