<svg width="160" height="94" viewBox="0 0 160 94" fill="none" xmlns="http://www.w3.org/2000/svg">
<path d="M94 46.9927C93.9968 57.0995 90.7388 66.9364 84.7089 75.0453C78.6789 83.1543 70.198 89.1036 60.5231 92.0116C50.8481 94.9196 40.4941 94.6314 30.9957 91.1899C21.4973 87.7484 13.3601 81.3366 7.79 72.9049C4.78357 68.3826 2.59369 63.3675 1.32 58.0879C-0.242837 51.6304 -0.420106 44.9149 0.799885 38.3838C2.01988 31.8528 4.60943 25.6546 8.39788 20.1976C12.1863 14.7407 17.0877 10.1489 22.7789 6.72493C28.4701 3.30093 34.8219 1.12246 41.4159 0.333069C48.0098 -0.456326 54.6961 0.161287 61.0341 2.1452C67.3721 4.12911 73.2179 7.43429 78.1863 11.8429C83.1547 16.2515 87.1329 21.6635 89.8586 27.7221C92.5844 33.7808 93.9958 40.3486 94 46.9927V46.9927Z" fill="#253844"/>
<path d="M103 53.4803C103 60.6869 100.679 67.7018 96.3805 73.4844C92.0821 79.2671 86.0356 83.5096 79.1376 85.5829C72.2396 87.6562 64.8574 87.4498 58.0859 84.9944C51.3143 82.5389 45.514 77.9652 41.5451 71.9514C39.4011 68.7303 37.8414 65.1564 36.9375 61.3936C35.8258 56.7912 35.7013 52.0055 36.572 47.3515C37.4428 42.6976 39.2891 38.2809 41.9893 34.3926C44.6895 30.5043 48.1824 27.2325 52.2379 24.7927C56.2933 22.3529 60.8194 20.8005 65.518 20.2376C70.2165 19.6748 74.9809 20.1144 79.4974 21.5274C84.0138 22.9404 88.1798 25.2948 91.7211 28.4355C95.2623 31.5762 98.0983 35.4319 100.042 39.7487C101.986 44.0655 102.994 48.7454 103 53.4803V53.4803Z" fill="#FF0049" stroke="white" stroke-width="4" stroke-miterlimit="10"/>
<path d="M29 64H51" stroke="white" stroke-width="4" stroke-linecap="round" stroke-linejoin="round"/>
<path d="M61 64H116" stroke="white" stroke-width="4" stroke-linecap="round" stroke-linejoin="round"/>
</svg>
