<svg width="160" height="94" viewBox="0 0 160 94" fill="none" xmlns="http://www.w3.org/2000/svg">
<path d="M94 47C94 56.2957 91.2435 65.3827 86.0791 73.1118C80.9147 80.8409 73.5743 86.865 64.9861 90.4224C56.398 93.9797 46.9479 94.9104 37.8308 93.0969C28.7137 91.2834 20.3391 86.8071 13.766 80.234C7.19293 73.661 2.71662 65.2864 0.903115 56.1693C-0.91039 47.0521 0.0203574 37.602 3.57768 29.0139C7.13499 20.4258 13.1591 13.0854 20.8882 7.92093C28.6173 2.7565 37.7043 0 47 0C59.4652 0 71.4198 4.95178 80.234 13.766C89.0482 22.5802 94 34.5348 94 47V47Z" fill="#253844"/>
<path d="M107 47.014C107 54.5367 104.575 61.8589 100.084 67.8948C95.5941 73.9306 89.2778 78.3586 82.0724 80.522C74.867 82.6854 67.1561 82.469 60.0834 79.9048C53.0107 77.3406 46.9529 72.5653 42.8083 66.2871C40.5763 62.9303 38.9489 59.2088 37.9997 55.2911C36.8249 50.4829 36.6838 45.4802 37.5855 40.6135C38.4873 35.7468 40.4115 31.1268 43.231 27.0586C46.0504 22.9905 49.701 19.5668 53.9416 17.0137C58.1822 14.4607 62.9162 12.8364 67.831 12.248C72.7459 11.6597 77.7296 12.1208 82.453 13.6009C87.1764 15.0809 91.532 17.5463 95.2322 20.834C98.9323 24.1217 101.893 28.1571 103.918 32.6735C105.943 37.1898 106.987 42.0844 106.98 47.034L107 47.014Z" fill="#FF0049" stroke="#F9F9F9" stroke-width="4" stroke-miterlimit="10"/>
<path d="M118 47.0101C117.996 51.3106 116.607 55.4953 114.039 58.9441C111.471 62.3928 107.861 64.9221 103.744 66.1571C99.6263 67.3921 95.2209 67.2672 91.1802 65.8007C87.1394 64.3343 83.6784 61.6044 81.31 58.0156C79.1488 54.7526 77.9975 50.9245 78 47.0101C78 41.7031 80.1071 36.6134 83.8579 32.8608C87.6086 29.1082 92.6957 27 98 27C103.304 27 108.391 29.1082 112.142 32.8608C115.893 36.6134 118 41.7031 118 47.0101Z" fill="#253844" stroke="white" stroke-width="4" stroke-miterlimit="10"/>
</svg>
